<svg version="1.1" id="Enapter_favicon" xmlns="http://www.w3.org/2000/svg" xmlns:xlink="http://www.w3.org/1999/xlink" x="0px"
     y="0px"
     width="850.4px" height="892.9px" viewBox="0 0 850.4 892.9" style="enable-background:new 0 0 850.4 892.9;"
     xml:space="preserve"
>
<style type="text/css">
	.st0{fill:#30CCCC;}
	.st1{fill:#FFFFFF;}
	.st2{fill:#003040;}
</style>
    <polygon class="st0" points="850.4,144.7 451.8,251.5 451.8,838 850.4,731.1 850.4,571.7 648.4,625.8 648.4,572.7 850.4,518.5
	850.4,359.1 648.4,413.2 648.4,360.1 850.4,306 "/>
    <path class="st1" d="M398.6,678.5L53.1,585.9v159.4L398.6,838V678.5z M398.6,465.9L53.1,373.3v159.4l345.5,92.6V465.9z M398.6,251.5
	L53.1,159v161.2l345.5,92.6V251.5z M719.4,126.7L425.2,47.8L131,126.7l294.2,78.8L719.4,126.7z"/>
    <g>
	<g>
		<path class="st2" d="M829.1,102.9L457.8,3.4C450,1.3,438.3,0,425.2,0c-13.1,0-24.8,1.3-32.6,3.4L21.3,102.9
			c0,0-21.3,5.7-21.3,24.6v637.8c0,19,21.3,24.7,21.3,24.7l371.3,99.5c7.8,2.1,19.5,3.4,32.6,3.4s24.8-1.3,32.6-3.4L829.1,790
			c0,0,21.2-5.7,21.3-24.6v-34.3L451.8,838V251.5l398.6-106.8v-17.2C850.4,108.6,829.1,102.9,829.1,102.9z M398.6,838L53.1,745.4
			V585.9l345.5,92.6V838z M398.6,625.4L53.1,532.8V373.3l345.5,92.6V625.4z M398.6,412.8L53.1,320.2V159l345.5,92.6V412.8z
			 M425.2,205.5L131,126.7l294.2-78.8l294.2,78.8L425.2,205.5z"/>
        <polygon class="st2" points="648.4,413.2 850.4,359.1 850.4,306 648.4,360.1 		"/>
        <polygon class="st2" points="648.4,625.8 850.4,571.7 850.4,518.5 648.4,572.7 		"/>
	</g>
</g>
</svg>
